<<<<<<< HEAD
<<<<<<< HEAD
<mxfile host="65bd71144e">
    <diagram id="CE3sPdwoKB8AXJ-z3cXn" name="科目">
        <mxGraphModel dx="712" dy="1150" grid="1" gridSize="10" guides="1" tooltips="1" connect="1" arrows="1" fold="1" page="1" pageScale="1" pageWidth="1169" pageHeight="827" math="0" shadow="0">
            <root>
                <mxCell id="0"/>
                <mxCell id="1" parent="0"/>
                <mxCell id="5" value="科目変更画面" style="swimlane;whiteSpace=wrap;html=1;" parent="1" vertex="1">
                    <mxGeometry x="350" y="-380" width="290" height="370" as="geometry"/>
                </mxCell>
                <mxCell id="4" value="科目名" style="rounded=1;whiteSpace=wrap;html=1;" parent="5" vertex="1">
                    <mxGeometry x="85" y="50" width="120" height="30" as="geometry"/>
                </mxCell>
                <mxCell id="7" value="年度" style="rounded=1;whiteSpace=wrap;html=1;" parent="5" vertex="1">
                    <mxGeometry x="85" y="100" width="120" height="30" as="geometry"/>
                </mxCell>
                <mxCell id="8" value="期" style="rounded=1;whiteSpace=wrap;html=1;" parent="5" vertex="1">
                    <mxGeometry x="85" y="150" width="120" height="30" as="geometry"/>
                </mxCell>
                <mxCell id="13" value="単位数" style="rounded=1;whiteSpace=wrap;html=1;" parent="5" vertex="1">
                    <mxGeometry x="85" y="200" width="120" height="30" as="geometry"/>
                </mxCell>
                <mxCell id="17" value="科目分類" style="rounded=1;whiteSpace=wrap;html=1;" parent="5" vertex="1">
                    <mxGeometry x="85" y="250" width="120" height="30" as="geometry"/>
                </mxCell>
                <mxCell id="18" value="科目内容" style="rounded=1;whiteSpace=wrap;html=1;" parent="5" vertex="1">
                    <mxGeometry x="85" y="300" width="120" height="30" as="geometry"/>
                </mxCell>
                <mxCell id="11" style="edgeStyle=none;html=1;entryX=1;entryY=0.5;entryDx=0;entryDy=0;" parent="1" source="9" target="8" edge="1">
                    <mxGeometry relative="1" as="geometry"/>
                </mxCell>
                <mxCell id="9" value="前期か後期の二択形式&lt;br&gt;&amp;lt;select&amp;gt;" style="rounded=1;whiteSpace=wrap;html=1;" parent="1" vertex="1">
                    <mxGeometry x="670" y="-255" width="220" height="80" as="geometry"/>
                </mxCell>
                <mxCell id="16" style="edgeStyle=none;html=1;entryX=0;entryY=0.5;entryDx=0;entryDy=0;" parent="1" source="15" target="13" edge="1">
                    <mxGeometry relative="1" as="geometry"/>
                </mxCell>
                <mxCell id="15" value="1~10の選択形式&lt;br&gt;&amp;lt;select&amp;gt;" style="rounded=1;whiteSpace=wrap;html=1;" parent="1" vertex="1">
                    <mxGeometry x="250" y="-180" width="120" height="30" as="geometry"/>
                </mxCell>
                <mxCell id="20" style="edgeStyle=none;html=1;entryX=1;entryY=0.25;entryDx=0;entryDy=0;" parent="1" source="19" target="18" edge="1">
                    <mxGeometry relative="1" as="geometry"/>
                </mxCell>
                <mxCell id="19" value="&amp;lt;textarea&amp;gt;" style="rounded=1;whiteSpace=wrap;html=1;" parent="1" vertex="1">
                    <mxGeometry x="680" y="-80" width="140" height="30" as="geometry"/>
                </mxCell>
            </root>
        </mxGraphModel>
    </diagram>
    <diagram id="uylpeLdhWiDYpu31s68X" name="クラス項目管理">
        <mxGraphModel dx="712" dy="323" grid="1" gridSize="10" guides="1" tooltips="1" connect="1" arrows="1" fold="1" page="1" pageScale="1" pageWidth="1654" pageHeight="1169" math="0" shadow="0">
            <root>
                <mxCell id="0"/>
                <mxCell id="1" parent="0"/>
                <mxCell id="2o9YRtV04wpPWsAlNlGu-1" value="登録画面" style="swimlane;whiteSpace=wrap;html=1;" parent="1" vertex="1">
                    <mxGeometry x="330" y="140" width="290" height="370" as="geometry"/>
                </mxCell>
                <mxCell id="ROQaCJ7aC5pBfX9iOJAE-1" value="クラス名" style="rounded=1;whiteSpace=wrap;html=1;" parent="2o9YRtV04wpPWsAlNlGu-1" vertex="1">
                    <mxGeometry x="85" y="110" width="120" height="30" as="geometry"/>
                </mxCell>
                <mxCell id="SOEFch_bH4NSaCfUXi87-1" value="登録" style="rounded=1;whiteSpace=wrap;html=1;" parent="2o9YRtV04wpPWsAlNlGu-1" vertex="1">
                    <mxGeometry x="85" y="220" width="120" height="30" as="geometry"/>
                </mxCell>
            </root>
        </mxGraphModel>
    </diagram>
</mxfile>
=======
<mxfile host="0htmhhfnlk81kdhuuppi83f0bd8il3cs7lssmn59bhi033ikp3pa" modified="2023-06-12T01:53:46.088Z" agent="Mozilla/5.0 (Windows NT 10.0; Win64; x64) AppleWebKit/537.36 (KHTML, like Gecko) Code/1.79.0 Chrome/108.0.5359.215 Electron/22.5.5 Safari/537.36" etag="s43RSD0n1cZQczpErWyD" version="12.2.4" pages="2"><diagram id="CE3sPdwoKB8AXJ-z3cXn" name="科目">3VhN05sgEP41e2xH8AuOmvi+vfSUQ9sjjVSd0ZAh5KuH/vaCYhIj7SRtXpvpJbP7LET24WFZBX/WHF4lW5cfRc5rwF5+AH8OGMeBp38NcOwAhLygQwpZ5RY7A4vqO7egnVhsq5xvBgOVELWq1kNwKVYrvlQDjEkp9sNh30Q9fOqaFXwELJasHqOfqlyVfRoRPQc+8Koo7aMJjrtAw/rBNpNNyXKxv4D8DPyZFEJ1VnOY8dqQ1/PSzXv5RfS0MMlX6pYJYTdhx+qtzQ2yGJIYKDIGTSHJIAshCYBQyCKDpEEbCiBNIaNA55Bgm4069hRt9lVTs5X20n1ZKb5Ys6UJ7bUiNFaqptYe0uZ4yTaLHZeKHy4gm8IrFw1X8qiH2KgfWjqtoN75xAL78/ZgarHyYmf82ILMSqI4/fmZNW1Y4twkBjeSqBdA5iOmpNiucp5bNu4mK7yXLBIOuArHTCHsYuoBRMUOokJIaSspbSSQRM/GD/ImJIg4CNJnbgb05el4mVI4yHcqR58mSiDTlWhubEOVVpH3bFThKSWEXIfMVY0IARKZAp4goNnTcTapvFznzslZBHqd5j7MTNl6Ms78SXWGRunzXHdJ1l2J9u6/yFenKY+fL50v2vHeh707N1l5J+9ovTFP/ZPFVi7to+1eKCYL3jddHWQW9VsuJa+ZqnbD1u5vmKHuWkX7EtVW88wHgoCk7b2XAZldh4zgAnMldiGSmENqBrftljFmQPStENU63/Sr1FahWroi1hiptfiG16YB7jE74rGyvbtdi+Krdg2H4Ui42CVc8gjhjluMG4XrvYFwUThWbn/bTS9dNH4fQD/0W9dZktQYKfnfJImv3yCQ4w3izWopHrcsf1ZL8WM06aim6J+VU+SopwNB6S3WK+XsySQVkStJuRQVPEZR2j1/M2hjF19e/Own</diagram><diagram id="J66gUEU1DqNTBDcfnUYz" name="クラス項目">1ZhNk6MgEIZ/TR9TFcAPOEpiZi9zytZszdGNbLRKxTJmTebXLxpMYsLsjFs1kT0JbyPCQ9M0Alnkh6cqKpNnGYsM8Dw+AFkCxojNmXq0ylEraO6clG2Vxlq7COv0TWhxrtV9GovdoGEtZVan5VDcyKIQm3qgRVUlm2GzXzIbfrWMtuJOWG+i7F79kcZ10k/DYxfDN5FuE/1piv2TIY/6xnomuySKZXMlkRDIopKyPpXyw0JkLb2ey+m91TvW88AqUdSfeSF+5sXrz+jlBcvvTsnK1+xtP9O9/I6yvZ4whC4EDlAGoQeMA3cg9IE5wDmEDNgSAqwnVB97SrsmzbOoUDXeJGkt1mW0aU2N8gqlJXWeqRpSxftR90MQVS0OV5KexZOQuairo2qircTVRLVPzQjVQnNZIcy0llwtDvG1GGmv2J47v4BTBc1uBEffwJEAxRCsugKBgGmFsxaxGh5d3nGs5L6IRaxZjUb51yX+NF/qDvAifE/3rA3ofhVc5BjoMlCrThGEyjNXECA7WSJ0A9Pgqt5DWboGlh5Q2u3vzkEpt5MlHm57d2qSnoGkckbaOmZIIfAg8G2LnTN0Q3HmO5MHT2Rz9PTGInaGgC0In9SA1wfuQ0A7t+RAPUthIv9jmu5DYTJr4ud4mHYFUGxKPlW4ZDpc0gVwbAigLWXUxllbKX+I2RhevwwzNmB22wSfBh1U1ub7drI8U7Fl+2Pybz477YXphuKMzic/87Epp7fkzD8v8v97ZcKmNH+SK9N4mNbdmbAp05/kzB8P82GXJlW9/MvqbFe/BEn4Bw==</diagram></mxfile>
>>>>>>> 24c7a3b76c56aaec54d1c13d3dd296e6d9bcdec1
=======
<mxfile host="0htmhhfnlk81kdhuuppi83f0bd8il3cs7lssmn59bhi033ikp3pa" modified="2023-06-16T02:48:54.760Z" agent="Mozilla/5.0 (Windows NT 10.0; Win64; x64) AppleWebKit/537.36 (KHTML, like Gecko) Code/1.79.0 Chrome/108.0.5359.215 Electron/22.5.5 Safari/537.36" etag="9GqZWFckYGRT5gxfsKvA" version="12.2.4" pages="2"><diagram id="CE3sPdwoKB8AXJ-z3cXn" name="科目">3Vg9k9owEP01WyZjyV9SaYPv0qS6IkmpYAV7xkaMEAekyG/PypYPjJUMl3CEScPsvpWR9vlptTKEs3b/qMW6+qhK2QANyj2Ec6A0jQL8tcChB0iQhj2y1HXpsCPwVH+Xw0CHbutSbkYDjVKNqddjcKFWK7kwI0xorXbjYd9UM551LZZyAjwtRDNFP9WlqRxKEn4MfJD1snJTM5r2gVYMg10mm0qUancChQWEM62U6a12P5ONJW/gpX/u4RfRl4VpuTKXPBD3DzyLZutygyKFLAVOrMFzyAooYsgiYByKxCJ51IUiyHMoOPA5ZNRlYw4DRZtd3TZihV6+q2ojn9ZiYUM7VARilWkb9Aia0yW7LJ6lNnJ/ArkUHqVqpdEHHOKiYezodIJ6FzIH7I6vh3KHVSdvJkwdKJwkli9/fmQNDUecn8ToQhJxAWw+YUqr7aqUpWPj1WTFryWLxSOu4ilThPqYugJRqYeoGHLeSQqNDLLk3vghwQ0JYh6CcM/NgD/cHS+3FA4JvcrB3cQZFFiJ5ta2VKGKgnujit5SQsS3yXzViDFgiS3gGQFe3B1nN5WXb995OUsA12nPw8KWrTvjLLypzsgkfVlil+TclerO/pN8MU19+HzqfEEneB8P7txmFbx4B+dNeRpmVlu9cFO7d2GEXsqh6eohu6jfcqllI0z9PG7t/oYZ7q9VfChRXTUvQmAEWN6dewWw2XnICi6yR2IfYpndpHZw125ZYwYMT4WkwXzzrxqtpenoSkRrpdbhG9nYBnjA3IjryvbV7VqSnrVrNI4nwqU+4bJrCHfaYlwo3OANhEviqXKH0+720iXT+wD5gbeuoyS5NXL2v0mSnt8giOcG8Wa1lE5blj+rpfQ6mvRUU/LPyinx1NORoPAV40qluDNJJexMUj5FRddRFLrHbwZd7OTLS1j8BA==</diagram><diagram id="J66gUEU1DqNTBDcfnUYz" name="クラス項目">1ZhNk6MgEIZ/TR9TFcAPOEpiZi9zytZszdGNbLRKxTJmTebXLxpMYsLsjFs1kT0JbyPCQ9M0Alnkh6cqKpNnGYsM8Dw+AFkCxojNmXq0ylErc5+clG2Vxlq7COv0TfQNtbpPY7EbNKylzOq0HIobWRRiUw+0qKpkM2z2S2bDr5bRVtwJ602U3as/0rhOtIo8djF8E+k20Z+m2D8Z8qhvrGeyS6JYNlcSCYEsKinrUyk/LETW0uu5nN5bvWM9D6wSRf2ZF+JnXrz+jF5esPzulKx8zd72M93L7yjb6wlD6ELgAGUQesA4cAdCH5gDnEPIgC0hwHpC9bGntGvSPIsKVeNNktZiXUab1tQor1BaUueZqiFVvB91PwRR1eJwJelZPAmZi7o6qibaSlxNVPvUjFAtNJcVwkxrydXiEF+LkfaK7bnzCzhV0OxGcPQNHAlQDMGqKxAImFY4axGr4dHlHcdK7otYxJrVaJR/XeJP86XuAC/C93TP2oDuV8FFjoEuA7XqFEGoPHMFAbKTJUI3MA2u6j2UpWtg6QGl3f7uHJRyO1ni4bZ3pybpGUgqZ6StY4YUAg8C37bYOUM3FGe+M3nwRDZHT28sYmcI2ILwSQ14feA+BLRzSw7UsxQm8j+m6T4UJrMmfo6HaVcAxabkU4VLpsMlXQDHhgDaUkZtnLWV8oeYjeH1yzBjA2a3TfBp0EFlbb5vJ8szFVu2Pyb/5rPTXphuKM7ofPIzH5tyekvO/PMi/79XJmxK8ye5Mo2Had2dCZsy/UnO/PEwH3ZpUtXLv6zOdvVLkIR/AA==</diagram></mxfile>
>>>>>>> 72e2041c6b835ec727272ca079057050de66cb23
